<svg width="71" height="13" viewBox="0 0 71 13" fill="none" xmlns="http://www.w3.org/2000/svg">
<path d="M28.1144 12.2647L28.4573 10.0788C28.343 10.0788 28.1144 10.2002 27.8858 10.2002C27.0858 10.2002 26.9715 9.71448 27.0858 9.4716L27.7716 5.09986H29.0287L29.3716 2.67112H28.2287L28.4573 1.21387H26.0572C26.0572 1.21387 24.6858 9.4716 24.6858 10.4431C24.6858 11.9003 25.4858 12.629 26.6287 12.629C27.3144 12.629 27.8858 12.3861 28.1144 12.2647Z" fill="#B9B9BB"/>
<path d="M28.9141 8.25753C28.9141 11.7798 31.1998 12.6299 33.0283 12.6299C34.7426 12.6299 35.5426 12.2656 35.5426 12.2656L35.9998 9.83646C35.9998 9.83646 34.7426 10.4437 33.4855 10.4437C30.8569 10.4437 31.3141 8.37899 31.3141 8.37899H36.1141C36.1141 8.37899 36.4569 6.80006 36.4569 6.07132C36.4569 4.4924 35.6569 2.42765 33.0283 2.42765C30.7426 2.30619 28.9141 5.09968 28.9141 8.25753ZM33.0283 4.61385C34.2855 4.61385 34.0569 6.19278 34.0569 6.31424H31.4283C31.5426 6.19278 31.7712 4.61385 33.0283 4.61385Z" fill="#B9B9BB"/>
<path d="M47.9996 12.2671L48.4568 9.4736C48.4568 9.4736 47.3139 10.0809 46.3996 10.0809C44.7996 10.0809 43.9996 8.74486 43.9996 7.16592C43.9996 4.12952 45.3711 2.55058 47.0853 2.55058C48.2282 2.55058 49.2568 3.27932 49.2568 3.27932L49.5996 0.607282C49.5996 0.607282 48.2282 0 46.8568 0C44.1139 0 41.4854 2.55058 41.4854 7.28738C41.4854 10.4452 42.8568 12.51 45.7139 12.51C46.7425 12.6315 47.9996 12.2671 47.9996 12.2671Z" fill="#B9B9BB"/>
<path d="M15.1998 2.30762C13.5998 2.30762 12.3427 2.79343 12.3427 2.79343L11.9998 4.97956C11.9998 4.97956 13.0284 4.49375 14.6284 4.49375C15.4284 4.49375 16.1141 4.6152 16.1141 5.34392C16.1141 5.82972 15.9998 5.95118 15.9998 5.95118H14.9712C12.9141 5.95118 10.7427 6.80134 10.7427 9.71619C10.7427 12.0238 12.1141 12.5096 13.0284 12.5096C14.6284 12.5096 15.4284 11.4165 15.5427 11.4165L15.4284 12.3881H17.3712L18.2855 5.46537C18.2855 2.42907 15.9998 2.30762 15.1998 2.30762ZM15.657 7.89441C15.657 8.25876 15.4284 10.3234 14.057 10.3234C13.3712 10.3234 13.1427 9.71619 13.1427 9.35183C13.1427 8.74457 13.4855 7.89441 15.3141 7.89441C15.5427 7.89441 15.657 7.89441 15.657 7.89441Z" fill="#B9B9BB"/>
<path d="M20.5715 12.5095C21.143 12.5095 24.1144 12.6309 24.1144 9.23042C24.1144 6.07281 21.2572 6.68004 21.2572 5.46558C21.2572 4.85834 21.7144 4.61545 22.5144 4.61545C22.8573 4.61545 24.1144 4.7369 24.1144 4.7369L24.4573 2.42941C24.4573 2.42941 23.6573 2.18652 22.1715 2.18652C20.4572 2.18652 18.6287 2.9152 18.6287 5.46558C18.6287 8.38029 21.6001 8.1374 21.6001 9.23042C21.6001 9.95909 20.8001 10.0805 20.2287 10.0805C19.2001 10.0805 18.0572 9.7162 18.0572 9.7162L17.7144 12.0237C17.9429 12.2666 18.6286 12.5095 20.5715 12.5095Z" fill="#B9B9BB"/>
<path d="M67.657 0.365234L67.1998 3.76608C67.1998 3.76608 66.2855 2.55149 64.9141 2.55149C62.7426 2.55149 60.9141 5.34504 60.9141 8.62443C60.9141 10.6892 61.8284 12.754 63.8855 12.754C65.2569 12.754 66.1712 11.7824 66.1712 11.7824L66.057 12.6326H68.457L70.1713 0.608152L67.657 0.365234ZM66.5141 6.92401C66.5141 8.26006 65.9427 10.0819 64.5712 10.0819C63.7712 10.0819 63.3141 9.35318 63.3141 8.01714C63.3141 5.95234 64.1141 4.73775 65.2569 4.73775C66.057 4.85921 66.5141 5.4665 66.5141 6.92401Z" fill="#B9B9BB"/>
<path d="M2.28573 12.3887L3.65716 3.40147L3.88573 12.3887H5.48574L8.57147 3.40147L7.31432 12.3887H9.82862L11.7715 0.365234H7.88575L5.48574 7.77365L5.37145 0.365234H1.94287L0 12.3887H2.28573Z" fill="#B9B9BB"/>
<path d="M38.8573 12.3886C39.5431 8.25915 39.6573 4.85842 41.3716 5.46569C41.6002 3.88678 41.9431 3.15805 42.1716 2.55078H41.7145C40.6859 2.55078 39.7716 4.00824 39.7716 4.00824L40.0002 2.67224H37.7145L36.2288 12.3886H38.8573Z" fill="#B9B9BB"/>
<path d="M53.4855 2.30762C51.8855 2.30762 50.6283 2.79343 50.6283 2.79343L50.2855 4.97956C50.2855 4.97956 51.314 4.49375 52.9141 4.49375C53.7141 4.49375 54.3998 4.6152 54.3998 5.34392C54.3998 5.82972 54.2855 5.95118 54.2855 5.95118H53.2569C51.1998 5.95118 49.0283 6.80134 49.0283 9.71619C49.0283 12.0238 50.3998 12.5096 51.3141 12.5096C52.9141 12.5096 53.7141 11.4165 53.8284 11.4165L53.7141 12.3881H55.8855L56.7998 5.46537C56.7998 2.42907 54.2855 2.30762 53.4855 2.30762ZM54.0569 7.89441C54.0569 8.25876 53.8284 10.3234 52.4569 10.3234C51.7712 10.3234 51.5426 9.71619 51.5426 9.35183C51.5426 8.74457 51.8855 7.89441 53.7141 7.89441C53.9426 7.89441 53.9426 7.89441 54.0569 7.89441Z" fill="#B9B9BB"/>
<path d="M58.6286 12.3886C59.3143 8.25915 59.4286 4.85842 61.1429 5.46569C61.3714 3.88678 61.7143 3.15805 61.9429 2.55078H61.4857C60.4572 2.55078 59.5429 4.00824 59.5429 4.00824L59.7714 2.67224H57.4857L56 12.3886H58.6286Z" fill="#B9B9BB"/>
</svg>
