<svg width="16" height="16" viewBox="0 0 16 16" fill="none" xmlns="http://www.w3.org/2000/svg">
<path d="M15.7923 8.20851L16 8.00054L15.7923 7.79334C15.7923 7.79334 15.7923 7.79334 15.7923 7.79283L8.14678 0.147074C8.03223 0.0325184 7.84566 0.0325184 7.73111 0.147074C7.61655 0.261629 7.61655 0.448191 7.73111 0.562747L14.8746 7.70622H0.294068C0.131676 7.70622 0 7.8384 0 8.00029C0 8.16294 0.131676 8.29436 0.294068 8.29436H14.8746L7.73161 15.4376C7.61706 15.5519 7.61706 15.7385 7.73161 15.8533C7.78927 15.9109 7.86455 15.9389 7.93983 15.9389C8.01511 15.9389 8.09039 15.9102 8.14804 15.8533L15.7923 8.20851C15.7923 8.20876 15.7923 8.20876 15.7923 8.20851Z" fill="#17181E"/>
</svg>
