<svg width="16" height="16" viewBox="0 0 16 16" fill="none" xmlns="http://www.w3.org/2000/svg">
<path d="M0.207711 8.20851L0 8.00054L0.207711 7.79334C0.207711 7.79334 0.207711 7.79334 0.207711 7.79283L7.85322 0.147074C7.96777 0.0325184 8.15434 0.0325184 8.26889 0.147074C8.38345 0.261629 8.38345 0.448191 8.26889 0.562747L1.12541 7.70622H15.7059C15.8683 7.70622 16 7.8384 16 8.00029C16 8.16294 15.8683 8.29436 15.7059 8.29436H1.12541L8.26839 15.4376C8.38294 15.5519 8.38294 15.7385 8.26839 15.8533C8.21073 15.9109 8.13545 15.9389 8.06017 15.9389C7.98489 15.9389 7.90961 15.9102 7.85196 15.8533L0.207711 8.20851C0.207711 8.20876 0.207711 8.20876 0.207711 8.20851Z" fill="#17181E"/>
</svg>
