<svg width="96" height="16" viewBox="0 0 96 16" fill="none" xmlns="http://www.w3.org/2000/svg">
<path d="M12.738 16C12.6827 16 12.6267 15.986 12.5767 15.9587L8 13.4287L3.42266 15.9587C3.31133 16.0207 3.17333 16.0127 3.06933 15.9394C2.96533 15.866 2.91199 15.7394 2.93199 15.6134L3.81 10.232L0.0946616 6.42272C0.00732831 6.33338 -0.0226717 6.20272 0.0173283 6.08405C0.0573283 5.96538 0.159328 5.87938 0.282662 5.86072L5.40466 5.07805L7.698 0.191381C7.808 -0.0432858 8.19133 -0.0432858 8.30133 0.191381L10.5947 5.07805L15.7167 5.86072C15.84 5.87938 15.9427 5.96605 15.982 6.08405C16.0213 6.20205 15.992 6.33338 15.9047 6.42272L12.1887 10.2314L13.0667 15.6127C13.0873 15.7387 13.034 15.8654 12.9293 15.9387C12.8733 15.9794 12.8053 16 12.738 16Z" fill="#17181E"/>
<path d="M32.738 16C32.6827 16 32.6267 15.986 32.5767 15.9587L28 13.4287L23.4227 15.9587C23.3113 16.0207 23.1733 16.0127 23.0693 15.9394C22.9653 15.866 22.912 15.7394 22.932 15.6134L23.81 10.232L20.0947 6.42272C20.0073 6.33338 19.9773 6.20272 20.0173 6.08405C20.0573 5.96538 20.1593 5.87938 20.2827 5.86072L25.4047 5.07805L27.698 0.191381C27.808 -0.0432858 28.1913 -0.0432858 28.3013 0.191381L30.5947 5.07805L35.7167 5.86072C35.84 5.87938 35.9427 5.96605 35.982 6.08405C36.0213 6.20205 35.992 6.33338 35.9047 6.42272L32.1887 10.2314L33.0667 15.6127C33.0873 15.7387 33.034 15.8654 32.9293 15.9387C32.8733 15.9794 32.8053 16 32.738 16Z" fill="#17181E"/>
<path d="M52.738 16C52.6827 16 52.6267 15.986 52.5767 15.9587L48 13.4287L43.4227 15.9587C43.3113 16.0207 43.1733 16.0127 43.0693 15.9394C42.9653 15.866 42.912 15.7394 42.932 15.6134L43.81 10.232L40.0947 6.42272C40.0073 6.33338 39.9773 6.20272 40.0173 6.08405C40.0573 5.96538 40.1593 5.87938 40.2827 5.86072L45.4047 5.07805L47.698 0.191381C47.808 -0.0432858 48.1913 -0.0432858 48.3013 0.191381L50.5947 5.07805L55.7167 5.86072C55.84 5.87938 55.9427 5.96605 55.982 6.08405C56.0213 6.20205 55.992 6.33338 55.9047 6.42272L52.1887 10.2314L53.0667 15.6127C53.0873 15.7387 53.034 15.8654 52.9293 15.9387C52.8733 15.9794 52.8053 16 52.738 16Z" fill="#17181E"/>
<path d="M72.738 16C72.6827 16 72.6267 15.986 72.5767 15.9587L68 13.4287L63.4227 15.9587C63.3113 16.0207 63.1733 16.0127 63.0693 15.9394C62.9653 15.866 62.912 15.7394 62.932 15.6134L63.81 10.232L60.0947 6.42272C60.0073 6.33338 59.9773 6.20272 60.0173 6.08405C60.0573 5.96538 60.1593 5.87938 60.2827 5.86072L65.4047 5.07805L67.698 0.191381C67.808 -0.0432858 68.1913 -0.0432858 68.3013 0.191381L70.5947 5.07805L75.7167 5.86072C75.84 5.87938 75.9427 5.96605 75.982 6.08405C76.0213 6.20205 75.992 6.33338 75.9047 6.42272L72.1887 10.2314L73.0667 15.6127C73.0873 15.7387 73.034 15.8654 72.9293 15.9387C72.8733 15.9794 72.8053 16 72.738 16Z" fill="#17181E"/>
<path d="M92.738 16C92.6827 16 92.6267 15.986 92.5767 15.9587L88 13.4287L83.4227 15.9587C83.3113 16.0207 83.1733 16.0127 83.0693 15.9394C82.9653 15.866 82.912 15.7394 82.932 15.6134L83.81 10.232L80.0947 6.42272C80.0073 6.33338 79.9773 6.20272 80.0173 6.08405C80.0573 5.96538 80.1593 5.87938 80.2827 5.86072L85.4047 5.07805L87.698 0.191381C87.808 -0.0432858 88.1913 -0.0432858 88.3013 0.191381L90.5947 5.07805L95.7167 5.86072C95.84 5.87938 95.9427 5.96605 95.982 6.08405C96.0213 6.20205 95.992 6.33338 95.9047 6.42272L92.1887 10.2314L93.0667 15.6127C93.0873 15.7387 93.034 15.8654 92.9293 15.9387C92.8733 15.9794 92.8053 16 92.738 16Z" fill="#17181E"/>
</svg>
