<svg width="40" height="14" viewBox="0 0 40 14" fill="none" xmlns="http://www.w3.org/2000/svg">
<path d="M37.3101 0.185547H34.7954C34.0352 0.185547 33.4504 0.434159 33.0995 1.24215L28.3042 12.8647H31.696C31.696 12.8647 32.2808 11.3109 32.3978 10.938C32.7486 10.938 36.082 10.938 36.5498 10.938C36.6668 11.3731 36.9592 12.8026 36.9592 12.8026H40.0001L37.3101 0.185547ZM33.3334 8.32758C33.6258 7.58175 34.62 4.78486 34.62 4.78486C34.62 4.84702 34.9124 4.03903 35.0294 3.60396L35.2633 4.72271C35.2633 4.72271 35.9065 7.76821 36.0235 8.38974H33.3334V8.32758Z" fill="#B9B9BB"/>
<path d="M28.5374 8.70081C28.5374 11.311 26.3152 13.0512 22.865 13.0512C21.403 13.0512 19.9995 12.7405 19.2393 12.3676L19.7071 9.50874L20.1164 9.69518C21.1691 10.1924 21.8708 10.3788 23.1574 10.3788C24.093 10.3788 25.0872 10.0059 25.0872 9.13585C25.0872 8.57651 24.6778 8.20362 23.3913 7.58213C22.1632 6.96064 20.5258 5.96627 20.5258 4.16396C20.5258 1.67801 22.8065 0 26.0228 0C27.2509 0 28.3035 0.248594 28.9468 0.559337L28.4789 3.29388L28.245 3.04528C27.6602 2.79669 26.9 2.54809 25.7889 2.54809C24.5608 2.61024 23.9761 3.16958 23.9761 3.66677C23.9761 4.22611 24.6778 4.66115 25.7889 5.22048C27.6602 6.15271 28.5374 7.20924 28.5374 8.70081Z" fill="#B9B9BB"/>
<path d="M0 0.311069L0.0584792 0.0625H5.08769C5.78944 0.0625 6.31575 0.311069 6.49119 1.11892L7.60229 6.71173C6.49119 3.7289 3.91811 1.30535 0 0.311069Z" fill="#B9B9BB"/>
<path d="M14.6783 0.186171L9.5906 12.8022H6.1403L3.21631 2.23705C5.32158 3.66645 7.07597 5.90377 7.71925 7.45747L8.07013 8.76257L11.228 0.124023H14.6783V0.186171Z" fill="#B9B9BB"/>
<path d="M16.0234 0.124023H19.2397L17.193 12.8022H13.9766L16.0234 0.124023Z" fill="#B9B9BB"/>
</svg>
